<svg xmlns="http://www.w3.org/2000/svg" width="32" height="32" viewBox="0 0 64 64">
  <defs>
    <linearGradient id="g" x1="0%" y1="0%" x2="100%" y2="100%">
      <stop offset="0%" stop-color="#1ed760"/>
      <stop offset="50%" stop-color="#00D4AA"/>
      <stop offset="100%" stop-color="#1db954"/>
    </linearGradient>
  </defs>
  <circle cx="32" cy="32" r="30" fill="url(#g)"/>
  <path d="M20 16a2 2 0 012-2h16l6 6v28a2 2 0 01-2 2H22a2 2 0 01-2-2V16z" fill="url(#g)"/>
  <rect x="25" y="24" width="14" height="3" rx="1.5" fill="#181818"/>
  <rect x="25" y="31" width="10" height="2" rx="1" fill="#181818" opacity="0.8"/>
  <rect x="25" y="36" width="12" height="2" rx="1" fill="#181818" opacity="0.6"/>
  <rect x="25" y="41" width="8" height="2" rx="1" fill="#181818" opacity="0.4"/>
  <circle cx="40" cy="44" r="6" fill="#181818"/>
  <path d="M37 44l2 2 4.5-4.5" stroke="url(#g)" stroke-width="2" stroke-linecap="round" fill="none"/>
</svg>
